<svg xmlns="http://www.w3.org/2000/svg" width="800" height="500" viewBox="0 0 800 500">
  <defs>
    <linearGradient id="bg" x1="0%" y1="0%" x2="100%" y2="100%">
      <stop offset="0%" stop-color="#F5C518"/>
      <stop offset="100%" stop-color="#E8A800"/>
    </linearGradient>
  </defs>
  <rect width="800" height="500" fill="url(#bg)"/>
  <rect x="0" y="0" width="800" height="120" fill="#1a1a1a" opacity="0.08"/>
  <rect x="48" y="48" width="704" height="404" rx="24" fill="#ffffff"/>
  <rect x="48" y="48" width="704" height="8" rx="4" fill="#1a1a1a" opacity="0.85"/>
  <circle cx="120" cy="140" r="36" fill="#F5C518"/>
  <text x="120" y="148" text-anchor="middle" font-family="Segoe UI, Arial, sans-serif" font-size="28" font-weight="700" fill="#1a1a1a">DAS</text>
  <text x="200" y="130" font-family="Segoe UI, Arial, sans-serif" font-size="34" font-weight="700" fill="#1a1a1a">Diti Annora Sukses</text>
  <text x="200" y="168" font-family="Segoe UI, Arial, sans-serif" font-size="18" fill="#666666">Legal Consulting</text>
  <text x="200" y="196" font-family="Segoe UI, Arial, sans-serif" font-size="16" fill="#888888">Alat Kesehatan &amp; Farmasi</text>
  <rect x="200" y="230" width="180" height="36" rx="8" fill="#F5C518"/>
  <text x="290" y="254" text-anchor="middle" font-family="Segoe UI, Arial, sans-serif" font-size="14" font-weight="600" fill="#1a1a1a">KONSULTAN LEGAL</text>
  <rect x="400" y="230" width="140" height="36" rx="8" fill="#fff8e1" stroke="#F5C518"/>
  <text x="470" y="254" text-anchor="middle" font-family="Segoe UI, Arial, sans-serif" font-size="14" fill="#666666">2023 - Present</text>
  <rect x="200" y="290" width="520" height="12" rx="6" fill="#f0f0f0"/>
  <rect x="200" y="290" width="380" height="12" rx="6" fill="#F5C518"/>
  <rect x="200" y="330" width="520" height="12" rx="6" fill="#f0f0f0"/>
  <rect x="200" y="330" width="420" height="12" rx="6" fill="#E8A800"/>
  <rect x="200" y="370" width="520" height="12" rx="6" fill="#f0f0f0"/>
  <rect x="200" y="370" width="300" height="12" rx="6" fill="#F5C518"/>
</svg>
