<svg xmlns="http://www.w3.org/2000/svg" width="800" height="500" viewBox="0 0 800 500">
  <defs>
    <linearGradient id="bg" x1="0%" y1="0%" x2="100%" y2="100%">
      <stop offset="0%" stop-color="#f97316"/>
      <stop offset="100%" stop-color="#ea580c"/>
    </linearGradient>
  </defs>
  <rect width="800" height="500" fill="url(#bg)"/>
  <rect x="60" y="60" width="680" height="380" rx="20" fill="#ffffff"/>
  <rect x="60" y="60" width="680" height="10" rx="5" fill="#ea580c"/>
  <rect x="100" y="110" width="200" height="120" rx="12" fill="#fff7ed" stroke="#fed7aa" stroke-width="2"/>
  <text x="200" y="165" text-anchor="middle" font-family="Segoe UI, Arial, sans-serif" font-size="22" font-weight="700" fill="#ea580c">GAS</text>
  <text x="200" y="195" text-anchor="middle" font-family="Segoe UI, Arial, sans-serif" font-size="13" fill="#9a3412">Apps Script</text>
  <text x="340" y="150" font-family="Segoe UI, Arial, sans-serif" font-size="40" font-weight="700" fill="#ea580c">KonterPro</text>
  <text x="340" y="190" font-family="Segoe UI, Arial, sans-serif" font-size="18" fill="#64748b">Retail &amp; Pulsa POS</text>
  <text x="340" y="220" font-family="Segoe UI, Arial, sans-serif" font-size="15" fill="#94a3b8">Embedded Blogger Web App</text>
  <rect x="100" y="260" width="600" height="140" rx="12" fill="#fff7ed" stroke="#fed7aa"/>
  <rect x="120" y="285" width="120" height="24" rx="6" fill="#ea580c" opacity="0.15"/>
  <text x="180" y="302" text-anchor="middle" font-family="Segoe UI, Arial, sans-serif" font-size="12" fill="#9a3412">Stok</text>
  <rect x="260" y="285" width="120" height="24" rx="6" fill="#ea580c" opacity="0.15"/>
  <text x="320" y="302" text-anchor="middle" font-family="Segoe UI, Arial, sans-serif" font-size="12" fill="#9a3412">Transaksi</text>
  <rect x="400" y="285" width="120" height="24" rx="6" fill="#ea580c" opacity="0.15"/>
  <text x="460" y="302" text-anchor="middle" font-family="Segoe UI, Arial, sans-serif" font-size="12" fill="#9a3412">Laporan</text>
  <rect x="120" y="330" width="560" height="50" rx="8" fill="#ffffff" stroke="#fed7aa"/>
  <text x="400" y="362" text-anchor="middle" font-family="Segoe UI, Arial, sans-serif" font-size="14" fill="#64748b">Google Sheets Backend</text>
</svg>
